<svg width="47" height="44" viewBox="0 0 47 44" fill="none" xmlns="http://www.w3.org/2000/svg">
<path d="M23.37 0C10.4698 0 0 9.856 0 22C0 34.144 10.4698 44 23.37 44C36.2702 44 46.74 34.144 46.74 22C46.74 9.856 36.2702 0 23.37 0ZM23.37 6.6C27.2494 6.6 30.381 9.548 30.381 13.2C30.381 16.852 27.2494 19.8 23.37 19.8C19.4906 19.8 16.359 16.852 16.359 13.2C16.359 9.548 19.4906 6.6 23.37 6.6ZM23.37 37.84C17.5275 37.84 12.3627 35.024 9.348 30.756C9.41811 26.378 18.696 23.98 23.37 23.98C28.0206 23.98 37.3219 26.378 37.392 30.756C34.3773 35.024 29.2125 37.84 23.37 37.84Z" fill="white"/>
</svg>
