<svg width="23" height="19" viewBox="0 0 23 19" fill="none" xmlns="http://www.w3.org/2000/svg">
<path d="M15.9145 11.9528H14.9399L14.5945 11.666C15.8034 10.4552 16.5313 8.88323 16.5313 7.17317C16.5313 3.36007 12.9414 0.269226 8.51264 0.269226C4.08387 0.269226 0.493988 3.36007 0.493988 7.17317C0.493988 10.9863 4.08387 14.0771 8.51264 14.0771C10.4988 14.0771 12.3246 13.4505 13.7309 12.4095L14.064 12.7069V13.546L20.2322 18.8461L22.0703 17.2636L15.9145 11.9528ZM8.51264 11.9528C5.44088 11.9528 2.96126 9.81791 2.96126 7.17317C2.96126 4.52843 5.44088 2.39352 8.51264 2.39352C11.5844 2.39352 14.064 4.52843 14.064 7.17317C14.064 9.81791 11.5844 11.9528 8.51264 11.9528Z" fill="black"/>
</svg>
